<svg xmlns="http://www.w3.org/2000/svg" width="296" height="258">
  <g fill="#ECF0F1" fill-rule="evenodd">
    <path d="M147.76 25.07c12.8 0 23.86-8.16 27.83-20.16-7.58 2.08-17.23 3.34-27.83 3.34-10.59 0-20.25-1.26-27.82-3.34a29.21 29.21 0 0 0 27.82 20.16z"/>
    <path d="M295.16 39.84a6.77 6.77 0 0 0-3.52-3.87L235.29 9.96A272.48 272.48 0 0 0 198.77.34a6.62 6.62 0 0 0-7.76 5.07 44.37 44.37 0 0 1-43.25 34.67 44.37 44.37 0 0 1-43.25-34.66A6.63 6.63 0 0 0 96.75.34a273.52 273.52 0 0 0-36.54 9.62l-56.32 26a6.63 6.63 0 0 0-3.51 3.88c-.6 1.72-.5 3.59.35 5.21L25.2 93.34a6.64 6.64 0 0 0 7.86 3.38l27.16-8.05v161.97c0 3.68 3 6.68 6.7 6.68h161.72c3.67 0 6.66-3 6.66-6.68V88.66l27.2 8.05a6.65 6.65 0 0 0 7.85-3.38l24.47-48.27a6.7 6.7 0 0 0 .35-5.22z"/>
  </g>
</svg>