<svg xmlns="http://www.w3.org/2000/svg" width="175.2mm" height="145.42mm" viewBox="0 0 496.62 412.2"><title>camisa-saopaulo</title><path d="M490.76,112.5,407.36,31a102.73,102.73,0,0,0-72.2-29.5H161.56A102.54,102.54,0,0,0,89.36,31L5.86,112.6a14.5,14.5,0,0,0-.6,20.1l54.6,59.9a14.52,14.52,0,0,0,19.6,1.7l33.8-26.2,3.5,228.3a14.54,14.54,0,0,0,14.5,14.3h234.4a14.54,14.54,0,0,0,14.5-14.3l3.5-228.3,33.8,26.2a14.52,14.52,0,0,0,19.6-1.7l54.6-59.9A15.05,15.05,0,0,0,490.76,112.5Z" transform="translate(0 0)" fill="#fff" stroke="#000" stroke-miterlimit="10" stroke-width="3"/><path d="M287.46,182.1a59.67,59.67,0,0,1-2.5,17.1,101,101,0,0,1-7.5,17.9c-3.4,6.3-7.7,13.4-13.1,21.5l-17.3,25.8h-27.9l24.6-43.6a24.91,24.91,0,0,1-9,2,22,22,0,0,1-13.4-4.6,32.3,32.3,0,0,1-10.1-12.7,43.81,43.81,0,0,1-3.8-18.6,49.59,49.59,0,0,1,4.9-21.1,44,44,0,0,1,14.5-17.5c6.4-4.6,14.2-6.9,23.3-6.9a38,38,0,0,1,15.7,3.1,32.77,32.77,0,0,1,11.8,8.5,37,37,0,0,1,7.3,12.9A51.77,51.77,0,0,1,287.46,182.1Zm-26.2-2.2c0-4.2-1-7.5-3.1-10a9.81,9.81,0,0,0-7.9-3.7,12.81,12.81,0,0,0-6.7,2.3,16.83,16.83,0,0,0-6,7.2,28,28,0,0,0-2.4,12.3,13,13,0,0,0,3.1,8.9,9.45,9.45,0,0,0,7.4,3.6,11.91,11.91,0,0,0,7.7-3,21.75,21.75,0,0,0,5.8-7.7,24.11,24.11,0,0,0,2.1-9.9Z" transform="translate(0 0)" fill="#ff314a"/><rect x="231.16" y="2.9" width="13.9" height="14.4" fill="#ff314a"/><rect x="251.56" width="13.9" height="17.3"/><polygon points="169.46 211 169.46 240.8 115.66 240.8 115.26 211 169.46 211" fill="#ff314a"/><rect x="112.76" y="167.3" width="56.7" height="29.7"/><polygon points="327.16 211 327.16 240.8 380.96 240.8 381.36 211 327.16 211" fill="#ff314a"/><rect x="327.16" y="167.3" width="56.7" height="29.7"/></svg>