<svg xmlns="http://www.w3.org/2000/svg" width="174.13mm" height="144.29mm" viewBox="0 0 493.59 409.01"><title>camisa-placeholder</title><path d="M489.72,111.55,406.34,30A102.79,102.79,0,0,0,334.14.5H160.52A102.62,102.62,0,0,0,88.32,30L4.84,111.55a14.45,14.45,0,0,0-.58,20l54.57,59.86a14.56,14.56,0,0,0,19.56,1.74L112.23,167l3.47,228.27a14.46,14.46,0,0,0,14.46,14.26H364.6a14.47,14.47,0,0,0,14.46-14.26L382.53,167l33.83,26.22a14.48,14.48,0,0,0,19.57-1.74l54.56-59.86a14.64,14.64,0,0,0-.77-20" transform="translate(-0.5 -0.5)" fill="#fff" fill-rule="evenodd"/><path d="M489.72,111.55,406.34,30A102.79,102.79,0,0,0,334.14.5H160.52A102.62,102.62,0,0,0,88.32,30L4.84,111.55a14.45,14.45,0,0,0-.58,20l54.57,59.86a14.56,14.56,0,0,0,19.56,1.74L112.23,167l3.47,228.27a14.46,14.46,0,0,0,14.46,14.26H364.6a14.47,14.47,0,0,0,14.46-14.26L382.53,167l33.83,26.22a14.48,14.48,0,0,0,19.57-1.74l54.56-59.86A14.64,14.64,0,0,0,489.72,111.55Z" transform="translate(-0.5 -0.5)" fill="#d8d8d8" fill-rule="evenodd"/><polygon points="170.51 211.89 170.51 195.6 186.24 195.6 186.24 118.61 170.51 118.61 170.51 107.21 189.81 85.21 206.6 85.21 206.6 195.6 219.11 195.6 219.11 211.89 170.51 211.89" fill="#a8a8a8" fill-rule="evenodd"/><path d="M272.13,196.1h24.12l7.68-8.76V110.76l-7.33-8.35H271.77l-7.32,8.35v76.58Zm-28.58-2.45v-89.2L260,85.71H308l16.79,18.94v89L308.4,212.39H260Z" transform="translate(-0.5 -0.5)" fill="#a8a8a8" fill-rule="evenodd"/></svg>