<svg xmlns="http://www.w3.org/2000/svg" width="175.19mm" height="145.35mm" viewBox="0 0 496.59 412.01"><title>camisa-santos</title><path d="M490.72,112.55,407.34,31a102.79,102.79,0,0,0-72.2-29.5H161.52A102.62,102.62,0,0,0,89.32,31L5.84,112.55a14.45,14.45,0,0,0-.58,20l54.57,59.86a14.56,14.56,0,0,0,19.56,1.74L113.23,168l3.47,228.27a14.46,14.46,0,0,0,14.46,14.26H365.6a14.47,14.47,0,0,0,14.46-14.26L383.53,168l33.83,26.22a14.48,14.48,0,0,0,19.57-1.74l54.56-59.86a14.64,14.64,0,0,0-.77-20" transform="translate(0 0)" fill="#fff" fill-rule="evenodd"/><path d="M490.72,112.55,407.34,31a102.79,102.79,0,0,0-72.2-29.5H161.52A102.62,102.62,0,0,0,89.32,31L5.84,112.55a14.45,14.45,0,0,0-.58,20l54.57,59.86a14.56,14.56,0,0,0,19.56,1.74L113.23,168l3.47,228.27a14.46,14.46,0,0,0,14.46,14.26H365.6a14.47,14.47,0,0,0,14.46-14.26L383.53,168l33.83,26.22a14.48,14.48,0,0,0,19.57-1.74l54.56-59.86A14.64,14.64,0,0,0,490.72,112.55Z" transform="translate(0 0)" fill="none" stroke="#000" stroke-width="3"/><path d="M172,213.39V197.1h15.73v-77H172v-11.4l19.3-22H208.1V197.1h12.51v16.29Zm52.7,4.48V192.62h-12.5V82.23h-23.4l-20.73,23.63v18.53H183.8v68.23H168.08v25.25Zm-59.66,3.46v-32h15.72V127.85H165.05V105.24l23.22-26.47h26.8V189.36h12.5v32Z" transform="translate(0 0)" fill-rule="evenodd"/><path d="M276,189.36h18.22l3.93-4.48V115.43L294.21,111h-18.4l-3.93,4.48v69.24Zm-7-3.87V114.61l6.25-7.12h19.66l6.25,7.12v70.88l-6.25,7.13H275.27Zm4.11,11.61h24.12l7.68-8.76V111.76l-7.33-8.35H272.77l-7.32,8.35v76.58Zm-28.58-2.45v-89.2L261,86.71H309l16.79,18.94v89L309.4,213.39H261ZM259,217.87h52.16l18.4-21V103.21l-18.4-21H259l-18.4,21v93.68Zm-21.44-19.35V101.58l20-22.81h55l20,22.81v96.94l-20,22.81h-55Z" transform="translate(0 0)" fill-rule="evenodd"/></svg>