<svg xmlns="http://www.w3.org/2000/svg" xmlns:xlink="http://www.w3.org/1999/xlink" width="175.19mm" height="150.57mm" viewBox="0 0 496.59 426.82"><defs><mask id="a" x="0" y="0" width="496.59" height="426.82" maskUnits="userSpaceOnUse"><g transform="translate(0 0)"><polygon points="0 426.82 496.59 426.82 496.59 0 0 0 0 426.82" fill="#fff" fill-rule="evenodd"/></g></mask></defs><title>camisa-corinthians</title><path d="M193,3.19,171.16,14.67A14.47,14.47,0,0,0,177.91,42a15.46,15.46,0,0,0,6.75-1.64l21.79-11.47a14.59,14.59,0,0,0,6.07-19.57A14.44,14.44,0,0,0,193,3.19" transform="translate(0 0)" fill="#fff" fill-rule="evenodd"/><path d="M193,3.19,171.16,14.67A14.47,14.47,0,0,0,177.91,42a15.46,15.46,0,0,0,6.75-1.64l21.79-11.47a14.59,14.59,0,0,0,6.07-19.57A14.44,14.44,0,0,0,193,3.19Z" transform="translate(0 0)" fill="none" stroke="#000" stroke-width="3"/><path d="M325.5,14.67,303.71,3.19a14.49,14.49,0,0,0-13.49,25.65L312,40.31A14,14,0,0,0,318.75,42a14.47,14.47,0,0,0,6.75-27.28" transform="translate(0 0)" fill="#fff" fill-rule="evenodd"/><path d="M325.5,14.67,303.71,3.19a14.49,14.49,0,0,0-13.49,25.65L312,40.31A14,14,0,0,0,318.75,42a14.47,14.47,0,0,0,6.75-27.28Z" transform="translate(0 0)" fill="none" stroke="#000" stroke-width="3"/><path d="M490.72,127.35,407.34,45.8a102.79,102.79,0,0,0-72.2-29.5H161.53A102.63,102.63,0,0,0,89.32,45.8L5.84,127.35a14.45,14.45,0,0,0-.58,20.05l54.57,59.87A14.56,14.56,0,0,0,79.39,209l33.84-26.22,3.47,228.27a14.47,14.47,0,0,0,14.46,14.27H365.6a14.47,14.47,0,0,0,14.46-14.27l3.47-228.27L417.36,209a14.47,14.47,0,0,0,19.57-1.73l54.56-59.87a14.64,14.64,0,0,0-.77-20.05" transform="translate(0 0)" fill-rule="evenodd"/><path d="M490.72,127.35,407.34,45.8a102.79,102.79,0,0,0-72.2-29.5H161.53A102.63,102.63,0,0,0,89.32,45.8L5.84,127.35a14.45,14.45,0,0,0-.58,20.05l54.57,59.87A14.56,14.56,0,0,0,79.39,209l33.84-26.22,3.47,228.27a14.47,14.47,0,0,0,14.46,14.27H365.6a14.47,14.47,0,0,0,14.46-14.27l3.47-228.27L417.36,209a14.47,14.47,0,0,0,19.57-1.73l54.56-59.87A14.64,14.64,0,0,0,490.72,127.35Z" transform="translate(0 0)" fill="none" stroke="#000" stroke-width="3"/><g mask="url(#a)"><polygon points="238.47 425.79 258.1 425.79 258.1 16.3 238.47 16.3 238.47 425.79" fill="#fff" fill-rule="evenodd"/></g><g mask="url(#a)"><polygon points="323.39 425.79 343.02 425.79 343.02 16.3 323.39 16.3 323.39 425.79" fill="#fff" fill-rule="evenodd"/></g><g mask="url(#a)"><polygon points="153.65 425.79 173.27 425.79 173.27 16.3 153.65 16.3 153.65 425.79" fill="#fff" fill-rule="evenodd"/></g><g mask="url(#a)"><polygon points="474.3 166.96 461.08 181.47 383.39 104.79 383.4 77.08 474.3 166.96" fill="#fff" fill-rule="evenodd"/></g><g mask="url(#a)"><polygon points="22.53 166.96 35.75 181.47 113.43 104.79 113.42 77.08 22.53 166.96" fill="#fff" fill-rule="evenodd"/></g><g mask="url(#a)"><path d="M265.41,151.58l6.41-6.41V126.49l-6.41-6.41H233.17l-6.41,6.41v18.68l6.41,6.41Zm1.83,54.21,6.41-6.41V178.87l-6.41-6.41h-35.9l-6.41,6.41v20.51l6.41,6.41ZM200,207.26v-34.8l11.54-11.54-9.71-9.71v-32.6l19.78-19.78H277l19.78,19.78v32.6L287,160.92l11.54,11.54v34.8L278.78,227h-59Z" transform="translate(0 0)" fill="#fff" fill-rule="evenodd"/></g></svg>