<svg xmlns="http://www.w3.org/2000/svg" width="175.21mm" height="150.1mm" viewBox="0 0 496.66 425.47"><title>camisa-palmeiras</title><path d="M193,1.8,171.2,13.3a14.7,14.7,0,0,0-6.1,19.6,14.47,14.47,0,0,0,12.8,7.7,16.05,16.05,0,0,0,6.7-1.6l21.8-11.5a14.7,14.7,0,0,0,6.1-19.6,14.27,14.27,0,0,0-19.18-6.27Z" transform="translate(0 -0.03)" fill="#fff"/><path d="M325.56,13.2,303.76,1.7a14.51,14.51,0,0,0-13.5,25.7l21.8,11.5a13.24,13.24,0,0,0,6.7,1.6,14.5,14.5,0,0,0,6.8-27.3Z" transform="translate(0 -0.03)" fill="#fff"/><path d="M490.76,125.9l-83.4-81.6a102.73,102.73,0,0,0-72.2-29.5H161.56a102.54,102.54,0,0,0-72.2,29.5L5.86,125.9a14.5,14.5,0,0,0-.6,20.1l54.6,59.9a14.52,14.52,0,0,0,19.6,1.7l33.8-26.2,3.5,228.3a14.54,14.54,0,0,0,14.5,14.3h234.4a14.54,14.54,0,0,0,14.5-14.3l3.5-228.3,33.8,26.2a14.52,14.52,0,0,0,19.6-1.7l54.6-59.9A14.82,14.82,0,0,0,490.76,125.9Z" transform="translate(0 -0.03)" fill="#029d57" stroke="#fff" stroke-miterlimit="10" stroke-width="3"/><polygon points="359.36 424.37 349.56 424.37 349.56 14.87 359.36 17.67 359.36 424.37" fill="#fff"/><rect x="190.36" y="252.57" width="9.8" height="171.8" fill="#fff"/><rect x="243.36" y="252.57" width="9.8" height="171.8" fill="#fff"/><rect x="296.46" y="252.57" width="9.8" height="171.8" fill="#fff"/><rect x="190.36" y="14.67" width="9.8" height="60.8" fill="#fff"/><polygon points="81.36 204.37 72.06 210.77 60.96 207.67 2.96 143.67 1.56 132.17 8.26 125.17 81.36 204.37" fill="#fff"/><polygon points="81.36 204.37 72.06 210.77 60.96 207.67 2.96 143.67 1.56 132.17 8.26 125.17 81.36 204.37" fill="#fff"/><polygon points="415.26 204.37 424.66 210.77 435.66 207.67 493.76 143.67 495.16 132.17 488.36 125.17 415.26 204.37" fill="#fff"/><rect x="243.36" y="14.67" width="9.8" height="60.8" fill="#fff"/><rect x="296.46" y="14.67" width="9.8" height="60.8" fill="#fff"/><polygon points="450.46 191.37 443.76 198.57 382.16 140.27 382.16 126.37 450.46 191.37" fill="#fff"/><polygon points="478.06 161.17 471.36 168.37 382.16 82.37 382.16 68.47 478.06 161.17" fill="#fff"/><polygon points="147.06 424.37 137.26 424.37 137.26 17.67 147.06 14.87 147.06 424.37" fill="#fff"/><path d="M197,133H182.7V108.4h39.8V220.1H197Z" transform="translate(0 -0.03)" fill="#fff"/><path d="M311.86,220.2H233l24.3-28.8c6.4-7.6,11.4-14.1,15.1-19.3a122.31,122.31,0,0,0,8.1-13.4,32.76,32.76,0,0,0,4-14.7,16.27,16.27,0,0,0-.7-4.9,12.09,12.09,0,0,0-5.5-7.2,9.85,9.85,0,0,0-4.7-1.1,9.45,9.45,0,0,0-8.1,3.9,15.21,15.21,0,0,0-2.9,9.6,32.17,32.17,0,0,0,.4,4.7H235.2a53,53,0,0,1,2.8-17.8,42.37,42.37,0,0,1,7.9-13.8,34.76,34.76,0,0,1,12-8.9,36.32,36.32,0,0,1,15.3-3.1,37.29,37.29,0,0,1,15.1,3,35.9,35.9,0,0,1,12,8.3,38.43,38.43,0,0,1,7.9,12.7,43.64,43.64,0,0,1,2.9,15.9,41.75,41.75,0,0,1-3.4,17,59.19,59.19,0,0,1-11,15.9l-16.2,17.3h31.7v24.7Z" transform="translate(0 -0.03)" fill="#fff"/><polygon points="48.16 191.37 54.86 198.57 116.36 140.27 116.46 126.37 48.16 191.37" fill="#fff"/><polygon points="20.56 161.17 27.26 168.37 116.36 82.37 116.46 68.47 20.56 161.17" fill="#fff"/></svg>