<svg xmlns="http://www.w3.org/2000/svg">
	<symbol id="next" viewBox="0 0 477.2 477.2">
		<path d="M360.7 229L135.7 4c-5.4-5.3-13.9-5.3-19.2 0s-5.3 13.8 0 19L332 238.7 116.5 454a13.6 13.6 0 009.5 23.1c3.4 0 7-1.3 9.5-4L360.6 248c5.3-5.2 5.3-13.8.1-19z"/>
	</symbol>
	<symbol id="prev" viewBox="0 0 477.2 477.2">
		<path d="M145.2 238.6L360.7 23c5.3-5.3 5.3-13.8 0-19.1s-13.8-5.3-19.1 0L116.5 229a13.5 13.5 0 000 19.2l225 225c2.7 2.6 6.2 4 9.6 4s6.9-1.3 9.5-4a13.5 13.5 0 000-19.1L145.2 238.6z"/>
	</symbol>

	<symbol id="check" height="100%" width="100%" viewBox="0 0 42 42">
		<path fill-opacity="1" opacity="1" fill-rule="evenodd" d="M30.0351562500002 15.16796875000023L28.019921875000218 15.16796875000023C27.58164062500022 15.16796875000023 27.164843750000227 15.378515625000233 26.90703125000023 15.739453125000239L20.152343750000284 25.10664062500038L17.092968750000313 20.861328125000316C16.835156250000317 20.50468750000031 16.42265625000032 20.28984375000031 15.980078125000325 20.28984375000031L13.964843750000341 20.28984375000031C13.685546875000343 20.28984375000031 13.522265625000344 20.60781250000031 13.685546875000343 20.835546875000315L19.039453125000296 28.260546875000433C19.29605610945256 28.61869617934081 19.70960932108737 28.83114043790204 20.150195312500287 28.83114043790204C20.590781303913204 28.83114043790204 21.004334515548013 28.61869617934081 21.260937500000278 28.260546875000433L30.310156250000194 15.713671875000236C30.477734375000193 15.485937500000231 30.314453125000195 15.167968750000227 30.0351562500002 15.16796875000023Z"/>
		<path fill-opacity="1" opacity="1" fill-rule="evenodd" d="M2.75 22C2.75 11.369537353515625 11.369529724121094 2.75 22 2.75C32.630470275878906 2.75 41.25 11.369537353515625 41.25 22C41.25 32.630462646484375 32.630470275878906 41.25 22 41.25C11.369529724121094 41.25 2.75 32.630462646484375 2.75 22ZM6.015625 22C6.015625 30.825775146484375 13.174217224121094 37.984375 22 37.984375C30.825782775878906 37.984375 37.984375 30.825775146484375 37.984375 22C37.984375 13.174224853515625 30.825782775878906 6.015625 22 6.015625C13.174217224121094 6.015625 6.015625 13.174224853515625 6.015625 22Z"/>
	</symbol>

	<symbol id="search" viewBox="0 0 56.966 56.966">
		<path d="M55.146,51.887L41.588,37.786c3.486-4.144,5.396-9.358,5.396-14.786c0-12.682-10.318-23-23-23s-23,10.318-23,23
		s10.318,23,23,23c4.761,0,9.298-1.436,13.177-4.162l13.661,14.208c0.571,0.593,1.339,0.92,2.162,0.92
		c0.779,0,1.518-0.297,2.079-0.837C56.255,54.982,56.293,53.08,55.146,51.887z M23.984,6c9.374,0,17,7.626,17,17s-7.626,17-17,17
		s-17-7.626-17-17S14.61,6,23.984,6z"/>
	</symbol>

	<symbol id="arrow-right" height="100%" width="100%" viewBox="0 0 20 20">
		<path d="M18.66992187500019 10.480078124999999L10.55312500000009 3.4353515625C10.490820312500091 3.381640625 10.411328125000088 3.3515625 10.327539062500087 3.3515625L8.426171875000065 3.3515625C8.267187500000063 3.3515625 8.194140625000061 3.5492187499999996 8.314453125000064 3.65234375L15.838281250000154 10.18359375L3.265625000000002 10.18359375C3.1710937500000007 10.18359375 3.09375 10.2609375 3.09375 10.35546875L3.09375 11.64453125C3.09375 11.7390625 3.1710937500000007 11.81640625 3.265625000000002 11.81640625L15.836132812500155 11.81640625L8.312304687500063 18.34765625C8.19199218750006 18.4529296875 8.265039062500062 18.6484375 8.424023437500065 18.6484375L10.389843750000088 18.6484375C10.430664062500089 18.6484375 10.471484375000088 18.6333984375 10.50156250000009 18.60546875L18.66992187500019 11.519921875000001C18.82040618313895 11.38906345457179 18.906811164450154 11.199422800083063 18.906811164450154 11.000000000000002C18.906811164450154 10.80057719991694 18.82040618313895 10.610936545428213 18.66992187500019 10.480078124999999Z"/>
	</symbol>
	<symbol id="goback" viewBox="0 0 341.33 341.33">
		<path d="M341.33 149.33H81.71L200.85 30.19 170.67 0 0 170.67l170.67 170.66 30.18-30.18L81.71 192h259.62z"/>
	</symbol>

	<symbol id="logo" height="100%" width="100%" viewBox="0 0 231.2334007133868 84.3668014267729">
		<path fill-opacity="1" opacity="1" fill-rule="evenodd" d="M24.126837006821802 51.12162976959024L24.126837006821802 48.00137526269735L29.80367098365574 48.00137526269735L29.80367098365574 49.62650781837074L31.239192219176964 51.12162976959024L39.917570597555276 51.12162976959024L41.353091833076505 49.62650781837074L41.353091833076505 46.89628512483945L39.852319632304315 45.40116317361994L28.89015747014223 45.40116317361994L24.3225899025747 40.85079201773448L24.3225899025747 35.13032542176417L28.955408435393196 30.51494896365176L41.809848589833265 30.51494896365176L46.50791808790272 35.260336026218035L46.50791808790272 38.380590533110926L40.83108411106879 38.380590533110926L40.83108411106879 36.755457977437544L39.39556287554756 35.26033602621804L31.434945114929857 35.26033602621804L29.99942387940863 36.75545797743755L29.99942387940863 39.290664764288024L31.50019608018082 40.785786715507534L42.46235824234291 40.785786715507534L47.029925809910445 45.401163173619935L47.029925809910445 51.251640374044115L42.39710727709194 55.867016832156516L28.824906504891267 55.867016832156516L24.126837006821802 51.12162976959024Z" />
		<path fill-opacity="1" opacity="1" fill-rule="evenodd" d="M51.8585044731517 35.5853721489334L51.8585044731517 50.79661482471465L56.94807356494857 55.80201643604278L71.04228132862045 55.80201643604278L76.13186567920638 50.73159712451934L76.13186567920638 35.5853721489334L71.04228132862045 30.514952837409965L56.94807356494857 30.514952837409965L51.8585044731517 35.5853721489334ZM70.32452314990951 49.04145735401153L68.3017417778392 51.05662459033965L59.68861311572982 51.05662459033965L57.66583174365951 49.04145735401153L57.66583174365951 37.405516802253715L59.68861311572982 35.39034956592559L68.3017417778392 35.39034956592559L70.32452314990951 37.405516802253715L70.32452314990951 49.04145735401153Z" />
		<path fill-opacity="1" opacity="1" fill-rule="evenodd" d="M81.74343932342481 50.79660325845527L81.74343932342481 35.52035723512548L86.7677636477491 30.449943661424527L100.20946248944786 30.449943661424527L105.29903777902312 35.52035723512548L105.29903777902312 39.680696577649336L99.49170187168725 39.680696577649336L99.49170187168725 37.340505697479664L97.46892194890734 35.32534132844467L89.57355515354061 35.32534132844467L87.5507752307607 37.340505697479664L87.5507752307607 48.911449493874144L89.57355515354061 50.92661386290914L97.46892194890734 50.92661386290914L99.49170187168725 48.911449493874144L99.49170187168725 46.57125861370447L105.29903777902312 46.57125861370447L105.29903777902312 50.73159795622833L100.20946248944786 55.80201152992929L86.7677636477491 55.80201152992929L81.74343932342481 50.79660325845527Z" />
		<path fill-opacity="1" opacity="1" fill-rule="evenodd" d="M109.86660534659109 50.79660325845527L109.86660534659109 35.52035723512548L114.89092967091537 30.449943661424527L128.33262851261412 30.449943661424527L133.4222038021894 35.52035723512548L133.4222038021894 39.680696577649336L127.61486789485352 39.680696577649336L127.61486789485352 37.340505697479664L125.59208797207361 35.32534132844467L117.69672117670686 35.32534132844467L115.67394125392696 37.340505697479664L115.67394125392696 48.911449493874144L117.69672117670686 50.92661386290914L125.59208797207361 50.92661386290914L127.61486789485352 48.911449493874144L127.61486789485352 46.57125861370447L133.4222038021894 46.57125861370447L133.4222038021894 50.73159795622833L128.33262851261412 55.80201152992929L114.89092967091537 55.80201152992929L109.86660534659109 50.79660325845527Z" />
		<path fill-opacity="1" opacity="1" fill-rule="evenodd" d="M137.98976057666732 35.5853721489334L137.98976057666732 50.79661482471465L143.01408308643295 55.93202131885528L157.10829085010482 55.93202131885528L162.0673667778392 50.9916221489334L162.0673667778392 47.74136274951934L156.32527083057357 47.74136274951934L156.32527083057357 49.23647993701934L154.49824446338607 51.1216270317459L145.7546226372142 51.1216270317459L143.7971031059642 49.17147749561309L143.7971031059642 45.07614058155059L162.0673667778392 45.07614058155059L162.0673667778392 35.5853721489334L156.91255110401107 30.514952837409965L143.0793296684642 30.514952837409965L137.98976057666732 35.5853721489334ZM156.26005476612045 37.340514360847465L156.26005476612045 40.85079878467559L143.6666099419017 40.85079878467559L143.6666099419017 37.340514360847465L145.68937605518295 35.32534712451934L154.23725813526107 35.32534712451934L156.26005476612045 37.340514360847465Z" />
		<path fill-opacity="1" opacity="1" fill-rule="evenodd" d="M167.9399644199498 30.51494896365177L173.2905435705289 30.51494896365177L173.2905435705289 34.87030421285643L177.5318563118416 30.51494896365177L184.5789605589458 30.51494896365177L184.5789605589458 35.45535193289885L178.77162465160995 35.45535193289885L173.68204936203472 40.655776111053676L173.68204936203472 55.86701683215653L167.87471345469885 55.86701683215653L167.87471345469885 30.51494896365176L167.9399644199498 30.51494896365177Z" />
		<path fill-opacity="1" opacity="1" fill-rule="evenodd" d="M201.60945051807357 22.129264055671683L201.60945051807357 25.054503618659965L203.6974937309642 27.06967085498809L206.82951277393295 27.06967085498809L208.91755598682357 25.054503618659965L208.91755598682357 22.129264055671683L206.82951277393295 20.11409681934356L203.6974937309642 20.11409681934356L201.60945051807357 22.129264055671683ZM208.1998130669017 30.514952837409965L202.39247053760482 30.514952837409965L202.39247053760482 55.86701887744903L208.1998130669017 55.86701887744903L208.1998130669017 30.514952837409965Z" />
		<path fill-opacity="1" opacity="1" fill-rule="evenodd" d="M217.59594897593354 50.796603258455356L217.59594897593354 35.3903466306717L213.02838140836593 35.3903466306717L213.02838140836593 30.514948963651555L217.72645090643545 30.514948963651555L217.72645090643545 22.259275580830774L223.40328488326944 22.259275580830774L223.40328488326944 30.514948963651555L231.23340071338532 30.514948963651555L231.23340071338532 35.3903466306717L223.40328488326944 35.3903466306717L223.40328488326944 48.976454796101166L225.4260648060494 50.991619165136164L231.23340071338532 50.991619165136164L231.23340071338532 55.86701683215631L222.6855242655088 55.86701683215631L217.59594897593354 50.796603258455356Z" />
		<path fill-opacity="0" strokeOpacity="1" strokeWidth="4.903" strokeLinecap="butt" strokeLinejoin="miter" opacity="1" fill-rule="evenodd" d="M185.4272231072084 72.83340071338652L19.5592694392548 72.83340071338652C15.122203802189158 72.83340071338652 11.533400713386072 69.25810909090508 11.533400713386072 64.83774853947348L11.533400713386072 19.52905288729957C11.533400713386072 15.10869233586797 15.122203802189158 11.533400713386527 19.5592694392548 11.533400713386527L185.4272231072084 11.533400713386527C189.86428874427403 11.533400713386527 193.45309183307714 15.10869233586797 193.45309183307714 19.52905288729957L193.45309183307714 64.83774853947348C193.45309183307714 69.25810909090508 189.86428874427403 72.83340071338652 185.4272231072084 72.83340071338652L185.4272231072084 72.83340071338652Z" />
	</symbol>

	<symbol id="logolettering" height="100%" width="100%" viewBox="0 0 108.14 19.94">
		<path d="M1.39,19.74V18H5v.78l.61.65h4.54l.62-.65v-1.2l-.65-.67h-6L1.5,14.28v-3L4.16,8.54h7.28l2.71,2.74V13H10.51v-.78l-.61-.65H5.75l-.61.65V13.3l.64.67h6l2.63,2.66v3.16l-2.66,2.69H4.1Z" transform="translate(-1.39 -2.55)"/>
		<path d="M16.81,19.57V11.45L19.7,8.54h8l2.88,2.91v8.12l-2.88,2.91h-8Zm9.1-.17,1-1V12.6l-1-1H21.49l-1,1v5.82l1,1Z" transform="translate(-1.39 -2.55)"/>
		<path d="M33.39,19.63V11.39l2.83-2.85h7.67l2.88,2.91V14H43.08V12.65l-1-1h-4l-1,1v5.72l1,1h4l1-1V17h3.69v2.58l-2.88,2.91H36.22Z" transform="translate(-1.39 -2.55)"/>
		<path d="M49,19.63V11.39l2.83-2.85h7.67l2.89,2.91V14H58.7V12.65l-1-1h-4l-1,1v5.72l1,1h4l1-1V17h3.7v2.58l-2.89,2.91H51.84Z" transform="translate(-1.39 -2.55)"/>
		<path d="M64.64,19.63V11.45l2.88-2.91h7.87l2.91,2.91v5.29h-10v1.79l.9.93h4.56l.84-.87v-.73h3.64v1.82l-2.77,2.8h-8Zm10-5.46V12.54l-1-1H69.29l-1,1v1.63Z" transform="translate(-1.39 -2.55)"/>
		<path d="M81.24,8.54h3.42v2.32L86.9,8.54h4v3.13H87.65l-2.71,2.8v8h-3.7Z" transform="translate(-1.39 -2.55)"/>
		<path d="M92.55,5.63V3.83l1.29-1.28h2l1.29,1.28v1.8L95.8,6.91h-2ZM93,8.54h3.7V22.48H93Z" transform="translate(-1.39 -2.55)"/>
		<path d="M101.57,19.63v-8H99.05V8.54h2.58V4h3.64V8.54h4.25v3.13h-4.25v6.75l1,.93h3.3v3.13h-5.07Z" transform="translate(-1.39 -2.55)"/>
	</symbol>

	<svg id="logoletteringoutline" height="100%" width="100%" viewBox="0 0 2411.99 444.858">
		<defs>
			<path id="path-1" opacity="1" fill-rule="evenodd" d="M2062.253662109375 97.46899414062648L2033.5245361328125 68.72814941406398L2033.5245361328125 28.740844726563978L2062.253662109375 1.4779288903810084e-12L2105.971923828125 1.4779288903810084e-12L2134.701171875 28.740844726563978L2134.701171875 68.72814941406398L2105.971923828125 97.46899414062648L2062.253662109375 97.46899414062648ZM2234.628662109375 381.128784179689L2234.628662109375 203.06042480468898L2178.41943359375 203.06042480468898L2178.41943359375 133.70745849609523L2235.877685546875 133.70745849609523L2235.877685546875 32.4896545410171L2317.06884765625 32.4896545410171L2317.06884765625 133.70745849609523L2412 133.70745849609523L2412 203.68518066406398L2317.06884765625 203.68518066406398L2317.06884765625 354.262329101564L2338.303466796875 374.880737304689L2412 374.880737304689L2412 444.858520507814L2298.95703125 444.858520507814L2234.628662109375 381.128784179689ZM0 383.6279907226577L0 345.5151367187515L81.19109344482422 345.5151367187515L81.19109344482422 363.0095825195327L94.93112182617188 377.380004882814L196.1077117919922 377.380004882814L209.84774780273438 363.0095825195327L209.84774780273438 336.1431274414077L195.48316955566406 321.1478881835952L61.205589294433594 321.1478881835952L2.498188018798828 261.7917480468765L2.498188018798828 193.68841552734523L61.83013916015625 133.70748901367335L224.21231079101562 133.70748901367335L284.7933654785156 194.93798828125148L284.7933654785156 233.05090332031398L203.60226440429688 233.05090332031398L203.60226440429688 215.55645751953273L189.86224365234375 201.18603515625148L97.42930603027344 201.18603515625148L83.68927764892578 215.55645751953273L83.68927764892578 239.92370605468898L98.0538558959961 254.91894531250148L232.3314208984375 254.91894531250148L291.038818359375 314.2750854492202L291.038818359375 384.8776245117202L231.70687866210938 444.858520507814L60.5810432434082 444.858520507814L0 383.6279907226577ZM408.45361328125 444.858520507814L344.12530517578125 379.8792114257827L344.12530517578125 198.68682861328273L408.45361328125 133.70748901367335L587.0740356445312 133.70748901367335L651.40234375 198.68682861328273L651.40234375 379.8792114257827L587.0740356445312 444.858520507814L408.45361328125 444.858520507814ZM713.8570556640625 381.128784179689L713.8570556640625 197.43719482422023L776.936279296875 133.70748901367335L948.0621337890625 133.70748901367335L1012.3904418945312 198.68682861328273L1012.3904418945312 256.168579101564L929.9502563476562 256.168579101564L929.9502563476562 225.55328369140773L908.0911254882812 203.68524169922023L818.1563720703125 203.68524169922023L796.2972412109375 225.55328369140773L796.2972412109375 353.0127563476577L818.1563720703125 374.8807983398452L908.0911254882812 374.8807983398452L929.9502563476562 353.0127563476577L929.9502563476562 322.3974609375015L1012.3904418945312 322.3974609375015L1012.3904418945312 379.8792114257827L948.0621337890625 444.858520507814L776.936279296875 444.858520507814L713.8570556640625 381.128784179689ZM1062.3541259765625 381.128784179689L1062.3541259765625 197.43719482422023L1125.4334716796875 133.70748901367335L1296.5592041015625 133.70748901367335L1360.8875732421875 198.68682861328273L1360.8875732421875 256.168579101564L1278.4473876953125 256.168579101564L1278.4473876953125 225.55328369140773L1256.5882568359375 203.68524169922023L1166.653564453125 203.68524169922023L1144.79443359375 225.55328369140773L1144.79443359375 353.0127563476577L1166.653564453125 374.8807983398452L1256.5882568359375 374.8807983398452L1278.4473876953125 353.0127563476577L1278.4473876953125 322.3974609375015L1360.8875732421875 322.3974609375015L1360.8875732421875 379.8792114257827L1296.5592041015625 444.858520507814L1125.4334716796875 444.858520507814L1062.3541259765625 381.128784179689ZM1410.851318359375 381.128784179689L1410.851318359375 198.68682861328273L1475.1796875 133.70748901367335L1650.67724609375 133.70748901367335L1715.630126953125 198.68682861328273L1715.630126953125 316.774291992189L1493.29150390625 316.774291992189L1493.29150390625 356.7615356445327L1513.2769775390625 377.380004882814L1615.078125 377.380004882814L1633.8145751953125 358.0111694335952L1633.8145751953125 341.7663574218765L1715.005615234375 341.7663574218765L1715.005615234375 382.3784179687515L1653.175537109375 444.858520507814L1473.9305419921875 444.858520507814L1410.851318359375 381.128784179689ZM1781.2076416015625 133.70748901367335L1857.40234375 133.70748901367335L1857.40234375 185.56597900390773L1907.3660888671875 133.70748901367335L1996.0517578125 133.70748901367335L1996.0517578125 203.68524169922023L1924.2288818359375 203.68524169922023L1863.6478271484375 266.1653442382827L1863.6478271484375 444.858520507814L1781.2076416015625 444.858520507814L1781.2076416015625 133.70748901367335ZM2042.8927001953125 444.858520507814L2042.8927001953125 133.70748901367335L2125.3330078125 133.70748901367335L2125.3330078125 444.858520507814L2042.8927001953125 444.858520507814Z"/>
			<mask id="mask-2" maskUnits="userSpaceOnUse" maskContentUnits="userSpaceOnUse" x="0" y="0">
				<rect opacity="1" x="0" y="0" width="2411.9999961853027" height="444.8585299833372" fill="black"/>
				<use xlink:href="#path-1" fill="white"/>
			</mask>
			<path id="path-3" opacity="1" fill-rule="evenodd" d="M1633.1900046762444 259.29254205489644L1633.1900046762444 223.05406629782664L1611.955411905589 201.18602058235365L1514.5261038990545 201.18602058235365L1493.2915111283999 223.05406629782664L1493.2915111283999 259.29254205489644L1633.1900046762444 259.29254205489644Z"/>
			<mask id="mask-4" maskUnits="userSpaceOnUse" maskContentUnits="userSpaceOnUse" x="0" y="0">
				<rect opacity="1" x="0" y="0" width="2411.9999961853027" height="444.8585299833372" fill="black"/>
				<use xlink:href="#path-3" fill="white"/>
			</mask>
			<path id="path-5" opacity="1" fill-rule="evenodd" d="M547.1030391418533 376.1303863061347L568.9621787587035 354.262340590662L568.9621787587035 224.30366891013762L547.1030391418533 202.4356231946649L448.42463744293013 202.4356231946649L426.56549782607993 224.30366891013762L426.56549782607993 354.262340590662L448.42463744293013 376.1303863061347L547.1030391418533 376.1303863061347Z"/>
			<mask id="mask-6" maskUnits="userSpaceOnUse" maskContentUnits="userSpaceOnUse" x="0" y="0">
				<rect opacity="1" x="0" y="0" width="2411.9999961853027" height="444.8585299833372" fill="black"/>
				<use xlink:href="#path-5" fill="white"/>
			</mask>
		</defs>
		<use xlink:href="#path-1" fill-opacity="0" stroke="rgb(255,255,255)" stroke-opacity="1" stroke-width="2" stroke-linecap="butt" stroke-linejoin="miter" mask="url(#mask-2)"/>
		<use xlink:href="#path-3" fill-opacity="0" stroke="rgb(255,255,255)" stroke-opacity="1" stroke-width="2" stroke-linecap="butt" stroke-linejoin="miter" mask="url(#mask-4)"/>
		<use xlink:href="#path-5" fill-opacity="0" stroke="rgb(255,255,255)" stroke-opacity="1" stroke-width="2" stroke-linecap="butt" stroke-linejoin="miter" mask="url(#mask-6)"/>
	</svg>

	<symbol id="spin" viewBox="0 0 1024 1024" width="100%" height="100%">
		<path d="M988 548c-19.9 0-36-16.1-36-36 0-59.4-11.6-117-34.6-171.3a440.45 440.45 0 00-94.3-139.9 437.71 437.71 0 00-139.9-94.3C629 83.6 571.4 72 512 72c-19.9 0-36-16.1-36-36s16.1-36 36-36c69.1 0 136.2 13.5 199.3 40.3C772.3 66 827 103 874 150c47 47 83.9 101.8 109.7 162.7 26.7 63.1 40.2 130.2 40.2 199.3.1 19.9-16 36-35.9 36z"></path>
	</symbol>

	<symbol id="close" width="100%" height="100%" viewBox="0 0 14.84 15.28">
		<path d="M8.64,7.64,14.8.31A.19.19,0,0,0,14.65,0H12.78a.41.41,0,0,0-.29.13L7.42,6.18,2.35.13A.39.39,0,0,0,2.06,0H.19A.19.19,0,0,0,0,.31L6.2,7.64,0,15a.21.21,0,0,0,0,.2.18.18,0,0,0,.17.11H2.06a.41.41,0,0,0,.29-.13L7.42,9.1l5.07,6.05a.41.41,0,0,0,.29.13h1.87A.19.19,0,0,0,14.8,15Z" transform="translate(0 0)" fill-rule="evenodd"/>
	</symbol>
</svg>