<svg xmlns="http://www.w3.org/2000/svg">
	<symbol id="next" viewBox="0 0 477.2 477.2">
		<path d="M360.7 229L135.7 4c-5.4-5.3-13.9-5.3-19.2 0s-5.3 13.8 0 19L332 238.7 116.5 454a13.6 13.6 0 009.5 23.1c3.4 0 7-1.3 9.5-4L360.6 248c5.3-5.2 5.3-13.8.1-19z"/>
	</symbol>
	<symbol id="prev" viewBox="0 0 477.2 477.2">
		<path d="M145.2 238.6L360.7 23c5.3-5.3 5.3-13.8 0-19.1s-13.8-5.3-19.1 0L116.5 229a13.5 13.5 0 000 19.2l225 225c2.7 2.6 6.2 4 9.6 4s6.9-1.3 9.5-4a13.5 13.5 0 000-19.1L145.2 238.6z"/>
	</symbol>
</svg>