<svg xmlns="http://www.w3.org/2000/svg">
	<symbol id="next" viewBox="0 0 477.2 477.2">
		<path d="M360.7 229L135.7 4c-5.4-5.3-13.9-5.3-19.2 0s-5.3 13.8 0 19L332 238.7 116.5 454a13.6 13.6 0 009.5 23.1c3.4 0 7-1.3 9.5-4L360.6 248c5.3-5.2 5.3-13.8.1-19z"/>
	</symbol>
	<symbol id="prev" viewBox="0 0 477.2 477.2">
		<path d="M145.2 238.6L360.7 23c5.3-5.3 5.3-13.8 0-19.1s-13.8-5.3-19.1 0L116.5 229a13.5 13.5 0 000 19.2l225 225c2.7 2.6 6.2 4 9.6 4s6.9-1.3 9.5-4a13.5 13.5 0 000-19.1L145.2 238.6z"/>
	</symbol>

	<symbol id="search" viewBox="0 0 56.966 56.966">
		<path d="M55.146,51.887L41.588,37.786c3.486-4.144,5.396-9.358,5.396-14.786c0-12.682-10.318-23-23-23s-23,10.318-23,23
		s10.318,23,23,23c4.761,0,9.298-1.436,13.177-4.162l13.661,14.208c0.571,0.593,1.339,0.92,2.162,0.92
		c0.779,0,1.518-0.297,2.079-0.837C56.255,54.982,56.293,53.08,55.146,51.887z M23.984,6c9.374,0,17,7.626,17,17s-7.626,17-17,17
		s-17-7.626-17-17S14.61,6,23.984,6z"/>
	</symbol>

	<symbol id="arrow-right" height="100%" width="100%">
		<defs>
			<rect id="rect-2" opacity="1" x="0" y="0" width="22" height="22" rx="0" ry="0"/>
		</defs>
		<path fill="rgb(0,0,0)" fill-opacity="1" opacity="1" fill-rule="evenodd" d="M18.66992187500019 10.480078124999999L10.55312500000009 3.4353515625C10.490820312500091 3.381640625 10.411328125000088 3.3515625 10.327539062500087 3.3515625L8.426171875000065 3.3515625C8.267187500000063 3.3515625 8.194140625000061 3.5492187499999996 8.314453125000064 3.65234375L15.838281250000154 10.18359375L3.265625000000002 10.18359375C3.1710937500000007 10.18359375 3.09375 10.2609375 3.09375 10.35546875L3.09375 11.64453125C3.09375 11.7390625 3.1710937500000007 11.81640625 3.265625000000002 11.81640625L15.836132812500155 11.81640625L8.312304687500063 18.34765625C8.19199218750006 18.4529296875 8.265039062500062 18.6484375 8.424023437500065 18.6484375L10.389843750000088 18.6484375C10.430664062500089 18.6484375 10.471484375000088 18.6333984375 10.50156250000009 18.60546875L18.66992187500019 11.519921875000001C18.82040618313895 11.38906345457179 18.906811164450154 11.199422800083063 18.906811164450154 11.000000000000002C18.906811164450154 10.80057719991694 18.82040618313895 10.610936545428213 18.66992187500019 10.480078124999999Z"/>
	</symbol>
</svg>