<svg xmlns="http://www.w3.org/2000/svg">
	<symbol id="next" viewBox="0 0 477.2 477.2">
		<path d="M360.7 229L135.7 4c-5.4-5.3-13.9-5.3-19.2 0s-5.3 13.8 0 19L332 238.7 116.5 454a13.6 13.6 0 009.5 23.1c3.4 0 7-1.3 9.5-4L360.6 248c5.3-5.2 5.3-13.8.1-19z"/>
	</symbol>
	<symbol id="prev" viewBox="0 0 477.2 477.2">
		<path d="M145.2 238.6L360.7 23c5.3-5.3 5.3-13.8 0-19.1s-13.8-5.3-19.1 0L116.5 229a13.5 13.5 0 000 19.2l225 225c2.7 2.6 6.2 4 9.6 4s6.9-1.3 9.5-4a13.5 13.5 0 000-19.1L145.2 238.6z"/>
	</symbol>

	<symbol id="search" viewBox="0 0 56.966 56.966">
		<path d="M55.146,51.887L41.588,37.786c3.486-4.144,5.396-9.358,5.396-14.786c0-12.682-10.318-23-23-23s-23,10.318-23,23
		s10.318,23,23,23c4.761,0,9.298-1.436,13.177-4.162l13.661,14.208c0.571,0.593,1.339,0.92,2.162,0.92
		c0.779,0,1.518-0.297,2.079-0.837C56.255,54.982,56.293,53.08,55.146,51.887z M23.984,6c9.374,0,17,7.626,17,17s-7.626,17-17,17
		s-17-7.626-17-17S14.61,6,23.984,6z"/>
	</symbol>
</svg>