<svg version="1" xmlns="http://www.w3.org/2000/svg" width="682.667" height="682.667" viewBox="0 0 512.000000 512.000000"><path d="M34.8 1.5C22.6 4.8 10.8 14.4 5.7 25-.4 37.6 0 22.4 0 256c0 204.9.1 213.8 1.9 220.2 4.7 17.1 17.8 29.7 35.6 34.3 5.2 1.3 30.9 1.5 218.5 1.5 232.5 0 217.1.4 229.8-5.8 7.3-3.5 16.9-13.1 20.5-20.4 6.1-12.7 5.7 3 5.5-233.4-.3-203-.4-216.2-2.1-221-4.2-12.4-14.9-23.5-27.5-28.6L476.5.5 258 .3C81.8.2 38.6.4 34.8 1.5zm316 141.3l25.3 24.7-.1 17.7V203h-61v-16.2l-7.6-8.4-7.6-8.4h-87.9l-10 8-9.9 8.1V213l10.7 8.5 10.7 8.5h119.1l22.3 25.1 22.2 25.1V340l-24.2 27.5-24.3 27.4-71.5.1h-71.5l-25.2-25.9-25.3-25.9V309h62v18.1l6.7 7.9 6.6 8h94.2l7.2-8.3 7.3-8.2v-29.2l-7.2-8.2-7.3-8.1H184.2l-24.6-25.1-24.6-25.2v-62.2l25.2-25.2 25.3-25.3h70l70 .1 25.3 24.7z"/></svg>